<svg id="Layer_1" data-name="Layer 1" xmlns="http://www.w3.org/2000/svg" viewBox="0 0 87.1 122.88"><title>bookshelf</title><path d="M22.2,114.56l0,8.32H12.57l1.73-8.32H6.83A6.87,6.87,0,0,1,0,107.73V1.58A1.58,1.58,0,0,1,1.58,0h84A1.57,1.57,0,0,1,87.1,1.58V107.73a6.87,6.87,0,0,1-6.83,6.83H72.82l1.71,8.32H65l0-8.32Zm31-23c0,3.17-.55,5.74-1.22,5.74s-1.23-2.57-1.23-5.74.55-5.73,1.23-5.73,1.22,2.56,1.22,5.73Zm-17.89,0c0,3.17-.55,5.74-1.22,5.74s-1.22-2.57-1.22-5.74.55-5.73,1.22-5.73,1.22,2.56,1.22,5.73ZM11.18,46.26h-4a.74.74,0,0,0-.74.73v3.26h5.52V47a.73.73,0,0,0-.73-.73Zm-4.79,6v9.92h5.52V52.25Zm0,11.91v3a.74.74,0,0,0,.74.73h4.05a.73.73,0,0,0,.73-.73v-3Zm13.24-17.9h-4a.73.73,0,0,0-.73.73v3.26h5.52V47a.74.74,0,0,0-.74-.73Zm-4.78,6v9.92h5.52V52.25Zm0,11.91v3a.73.73,0,0,0,.73.73h4a.74.74,0,0,0,.74-.73v-3ZM28,46.26H24a.74.74,0,0,0-.74.73v3.26h5.52V47a.73.73,0,0,0-.73-.73Zm-4.79,6v9.92h5.52V52.25Zm0,11.91v3a.74.74,0,0,0,.74.73H28a.73.73,0,0,0,.73-.73v-3Zm13.15-17.9h-4a.74.74,0,0,0-.74.73v3.26H37.1V47a.74.74,0,0,0-.74-.73Zm-4.78,6v9.92H37.1V52.25Zm0,11.91v3a.74.74,0,0,0,.74.73h4a.74.74,0,0,0,.74-.73v-3Zm13.15-17.9h-4A.74.74,0,0,0,40,47v3.26h5.52V47a.74.74,0,0,0-.74-.73Zm-4.78,6v9.92h5.52V52.25Zm0,11.91v3a.74.74,0,0,0,.74.73h4a.74.74,0,0,0,.74-.73v-3ZM60.67,46.22l-3.8,1.38a.75.75,0,0,0-.44.95l1.11,3.06,5.19-1.89-1.12-3.06a.73.73,0,0,0-.94-.44Zm-2.45,7.26,3.39,9.32,5.19-1.89-3.39-9.32-5.19,1.89Zm4.08,11.2,1,2.84a.75.75,0,0,0,1,.44l3.8-1.38a.74.74,0,0,0,.44-1l-1-2.84L62.3,64.68ZM53.1,46.26H49.05a.73.73,0,0,0-.73.73v3.26h5.52V47a.74.74,0,0,0-.74-.73Zm-4.78,6v9.92h5.52V52.25Zm0,11.91v3a.73.73,0,0,0,.73.73H53.1a.74.74,0,0,0,.74-.73v-3ZM11.79,10h-4a.74.74,0,0,0-.74.74V14h5.52V10.75a.74.74,0,0,0-.73-.74ZM7,16v9.92h5.52V16ZM7,27.91v3a.75.75,0,0,0,.74.74h4a.74.74,0,0,0,.73-.74v-3ZM20.15,10h-4a.74.74,0,0,0-.74.74V14h5.52V10.75a.74.74,0,0,0-.74-.74Zm-4.78,6v9.92h5.52V16Zm0,11.91v3a.74.74,0,0,0,.74.74h4a.74.74,0,0,0,.74-.74v-3ZM28.52,10h-4a.74.74,0,0,0-.74.74V14h5.52V10.75a.74.74,0,0,0-.74-.74Zm-4.78,6v9.92h5.52V16Zm0,11.91v3a.74.74,0,0,0,.74.74h4a.74.74,0,0,0,.74-.74v-3ZM44.46,10l-3.8,1.38a.75.75,0,0,0-.44,1l1.11,3.06,5.19-1.89-1.11-3.06a.75.75,0,0,0-.95-.44ZM42,17.23l3.39,9.32,5.19-1.88L47.2,15.34,42,17.23Zm4.08,11.2,1,2.84a.74.74,0,0,0,1,.44l3.8-1.38a.73.73,0,0,0,.44-.94l-1-2.85-5.18,1.89ZM36.89,10h-4a.74.74,0,0,0-.73.74V14h5.52V10.75a.74.74,0,0,0-.74-.74Zm-4.78,6v9.92h5.52V16Zm0,11.91v3a.74.74,0,0,0,.73.74h4a.74.74,0,0,0,.74-.74v-3ZM84,38H3.15v33.4H84V38ZM3.15,35.22H84V3.15H3.15V35.22ZM84,74.12H44.86v37.29H80.27A3.69,3.69,0,0,0,84,107.73V74.12Zm-41.83,0h-39v33.61a3.7,3.7,0,0,0,3.68,3.68H42.12V74.12Z"/></svg>